<?xml version="1.0" encoding="UTF-8" standalone="no"?>
<!-- Created with Inkscape (http://www.inkscape.org/) -->

<svg
   width="500mm"
   height="700mm"
   viewBox="0 0 500 700"
   version="1.1"
   id="svg7940"
   inkscape:version="1.1.1 (c3084ef, 2021-09-22)"
   sodipodi:docname="board3.svg"
   xmlns:inkscape="http://www.inkscape.org/namespaces/inkscape"
   xmlns:sodipodi="http://sodipodi.sourceforge.net/DTD/sodipodi-0.dtd"
   xmlns="http://www.w3.org/2000/svg"
   xmlns:svg="http://www.w3.org/2000/svg">
  <sodipodi:namedview
     id="namedview7942"
     pagecolor="#ffffff"
     bordercolor="#666666"
     borderopacity="1.0"
     inkscape:pageshadow="2"
     inkscape:pageopacity="0.0"
     inkscape:pagecheckerboard="0"
     inkscape:document-units="mm"
     showgrid="false"
     inkscape:zoom="0.17310598"
     inkscape:cx="984.94575"
     inkscape:cy="1253.5673"
     inkscape:window-width="1312"
     inkscape:window-height="834"
     inkscape:window-x="0"
     inkscape:window-y="25"
     inkscape:window-maximized="0"
     inkscape:current-layer="layer1" />
  <defs
     id="defs7937" />
  <g
     inkscape:label="Layer 1"
     inkscape:groupmode="layer"
     id="layer1"
     transform="translate(0,403)">
    <g
       id="g8541"
       style="fill:#ffffff;fill-opacity:1">
      <path
         id="rect3977"
         style="fill:#ffffff;fill-opacity:1;stroke:#009bea;stroke-width:11.2032"
         d="M 5.6016002,-397.35479 H 494.50347 V 291.39837 H 5.6016002 Z" />
      <g
         aria-label="3"
         id="text3332"
         style="font-size:600px;line-height:1.25;font-family:Poppins;-inkscape-font-specification:Poppins;fill:#ffffff;fill-opacity:1;stroke:#009bea;stroke-width:12;stroke-dasharray:24, 24">
        <path
           d="m 111.15253,-160.22395 q 4.2,-55.2 42.6,-86.4 38.4,-31.2 99.6,-31.2 40.8,0 70.2,15 30,14.4 45,39.6 15.6,25.2 15.6,57 0,37.2 -21.6,64.2 -21,27.000003 -55.2,34.800003 v 3 q 39,9.6 61.8,37.8 22.8,28.1999999 22.8,73.8 0,34.2 -15.6,61.799997 -15.6,27 -46.8,42.6 -31.2,15.6 -75,15.6 -63.6,0 -104.4,-33 -40.8,-33.6 -45.6,-94.799997 h 52.8 q 4.2,36 29.4,58.8 25.2,22.799997 67.2,22.799997 42,0 63.6,-21.599997 22.2,-22.2 22.2,-57 0,-45.0000001 -30,-64.8 -30,-19.8 -90.6,-19.8 h -13.8 v -45.6 h 14.4 q 55.2,-0.6 83.4,-18.000003 28.2,-18 28.2,-55.2 0,-31.8 -21,-51 -20.4,-19.2 -58.8,-19.2 -37.2,0 -60,19.2 -22.8,19.2 -27,51.6 z"
           id="path8543"
           style="fill:#ffffff;fill-opacity:1" />
      </g>
    </g>
  </g>
</svg>
