<?xml version="1.0" encoding="UTF-8" standalone="no"?>
<!-- Created with Inkscape (http://www.inkscape.org/) -->

<svg
   width="500mm"
   height="700mm"
   viewBox="0 0 500 700"
   version="1.1"
   id="svg7144"
   inkscape:version="1.1.1 (c3084ef, 2021-09-22)"
   sodipodi:docname="board2.svg"
   xmlns:inkscape="http://www.inkscape.org/namespaces/inkscape"
   xmlns:sodipodi="http://sodipodi.sourceforge.net/DTD/sodipodi-0.dtd"
   xmlns="http://www.w3.org/2000/svg"
   xmlns:svg="http://www.w3.org/2000/svg">
  <sodipodi:namedview
     id="namedview7146"
     pagecolor="#ffffff"
     bordercolor="#666666"
     borderopacity="1.0"
     inkscape:pageshadow="2"
     inkscape:pageopacity="0.0"
     inkscape:pagecheckerboard="0"
     inkscape:document-units="mm"
     showgrid="false"
     inkscape:zoom="0.12448388"
     inkscape:cx="1281.2904"
     inkscape:cy="1213.0084"
     inkscape:window-width="1312"
     inkscape:window-height="834"
     inkscape:window-x="273"
     inkscape:window-y="25"
     inkscape:window-maximized="0"
     inkscape:current-layer="g7115" />
  <defs
     id="defs7141" />
  <g
     inkscape:label="Layer 1"
     inkscape:groupmode="layer"
     id="layer1"
     transform="translate(0,403)">
    <g
       id="g7115"
       transform="translate(-7.7882986e-4,-7.7712733e-4)">
      <g
         id="g8612"
         style="fill:#ffffff;fill-opacity:1">
        <path
           id="rect3977"
           style="fill:#ffffff;fill-opacity:1;stroke:#009bea;stroke-width:11.2032"
           d="M 5.5498433,-397.35401 H 494.45171 V 291.39915 H 5.5498433 Z" />
        <g
           aria-label="2"
           id="text3332"
           style="font-size:600px;line-height:1.25;font-family:Poppins;-inkscape-font-specification:Poppins;fill:#ffffff;fill-opacity:1;stroke:#009bea;stroke-width:12;stroke-dasharray:24, 24">
          <path
             d="m 105.70078,120.57682 q 76.2,-61.200004 119.4,-100.200004 43.2,-39.6 72.6,-82.2 30,-43.199996 30,-84.599996 0,-39 -19.2,-61.2 -18.6,-22.8 -60.6,-22.8 -40.8,0 -63.6,25.8 -22.2,25.2 -24,67.8 h -52.8 q 2.4,-67.2 40.8,-103.8 38.4,-36.6 99,-36.6 61.8,0 97.8,34.2 36.6,34.2 36.6,94.2 0,49.799996 -30,97.199996 -29.4,46.7999998 -67.2,82.8 -37.8,35.4 -96.6,82.800004 h 206.4 v 45.6 h -288.6 z"
             id="path8588"
             style="fill:#ffffff;fill-opacity:1" />
        </g>
      </g>
    </g>
  </g>
</svg>
